<svg xmlns="http://www.w3.org/2000/svg" viewBox="0 0 700 160"><title>工作區域 1</title><path d="M76.75,67.13v5.7h31.4v4.3H76.75v6.3h38.4v4.5H30.65v-4.5h36.9v-6.3H36.75v-4.3h30.8v-5.7H39.45v-4.5h28.1V56H29.45v-4.5h38.1v-5.9H40.65v-4.5h26.9v-8.4h9.2v8.4h27.4v10.4h12.2V56h-12.2v11.1Zm-34.2,26.8H103v31.8h-8.8v-4.9H51.35V126h-8.8Zm8.8,11.1h42.8v-6.7H51.35Zm0,11.4h42.8v-7.1H51.35Zm25.4-64.9h18.8v-5.9H76.75Zm0,11.1h18.8V56H76.75Z"/><path d="M166,71.13c-.1,20.1-.1,33.8-1.9,44.6-2.1,12.4-13.1,11.1-22.2,3.1l1.4-3.2c10.2,3.1,12,2.8,12.8-1.8,1.3-7.4,1.7-20.2,1.6-38.4H149c-.8,26.6-4.5,38.9-16.6,51.2l-2.8-2.3c9.5-13.1,11-22.6,11-67.1h-10.2v-4.5h19c-2.7-6-6.5-13.1-9.3-18l2.8-2.3c5.3,4.3,11.5,11.8,14.7,16.5l-5.9,3.8h17.8v4.5h-20.3c0,5,0,9.6-.1,13.9Zm-1.2-5.2c7.2-9.6,10.6-21.2,13.1-33.3l9.4,3.1a101.52,101.52,0,0,1-4.9,12.3h31.2v4.5H180a68.3,68.3,0,0,1-12.7,15.8Zm52.5,51.6-6.9,8.9c-10.5-8.5-20.2-22-21-56.4-2.2.5-4.5,1-6.9,1.4v41.4a118.72,118.72,0,0,0,12.1-3l1.3,3.4a128.65,128.65,0,0,1-27.3,11l-3.3-9.4c2.9-.1,5.8-.4,8.6-.7V66.43l8.2,1.6a54.66,54.66,0,0,0,18.3-11.2l8.3,6.7a142.18,142.18,0,0,1-16.1,5.7,91.44,91.44,0,0,0,3.4,20.2,48.33,48.33,0,0,0,8.5-13.1l6.9,5.4a69.13,69.13,0,0,1-14.4,10.7A48.62,48.62,0,0,0,217.35,117.53Z"/><path d="M239.75,80.33a7.48,7.48,0,0,1-7.4-7.2,7.28,7.28,0,0,1,7.4-7.2,7.2,7.2,0,1,1,0,14.4Zm.1,38a7.41,7.41,0,0,1-7.4-7.2,7.28,7.28,0,0,1,7.4-7.2,7.2,7.2,0,1,1,0,14.4Z"/><path d="M302.85,50.83h-19.9v-6.5h50.3v6.5h-20.1v66.9h-10.3Z"/><path d="M354.75,73.53c-8.8,3.2-10.5,11.5-10.5,17v27.2h-9.4v-52h8.6c-.1,3.5-.1,8-.2,11.3,2.4-7.2,7.9-12.1,13.3-12.7a14.63,14.63,0,0,1,5.5.2v9.3C359,72.63,357.25,72.63,354.75,73.53Z"/><path d="M377.14,54a6.07,6.07,0,0,1-6.1-5.8,5.92,5.92,0,0,1,6.1-5.7,5.77,5.77,0,0,1,6,5.7A5.91,5.91,0,0,1,377.14,54Zm-4.7,11.7h9.4v52h-9.4Z"/><path d="M405.74,74.53A19.11,19.11,0,0,1,422.34,64c15.9.1,23,11.7,23.2,26.9.2,17.4-8.8,28.6-22.6,28.5-6.4.1-13.6-3.3-16.4-9.3v31.1h-9.4v-77h8.6Zm16.1,40c11.3,0,13.6-13.3,13.6-23.7s-2.7-21.6-14.6-21.8c-9,.2-14.4,9.5-15.2,20.3v5.4C406.34,103.83,410.94,114.53,421.84,114.53Z"/><path d="M483.14,118c-8.1.3-16.4.1-24.6-.3V45a221.26,221.26,0,0,1,23-1c8.5.1,14.1,2,18.8,5.9,3.9,3.3,5.4,7.4,5.4,12.9,0,8.7-6,14.6-13.4,16.6V80c10.1,2,16.8,8.8,16.8,17.5C509.14,112.73,498.34,117.43,483.14,118Zm-3.7-67.4a74.08,74.08,0,0,0-10.5.7v25.6h11.2c8.5,0,14.9-2.2,14.9-13.3C495,54,488.44,50.63,479.44,50.63Zm.9,32.3h-11.4v28.3a69.86,69.86,0,0,0,11.1.4c11.1-.6,18.4-1.7,18.4-13.8C498.44,86.33,490,82.93,480.34,82.93Z"/><path d="M541.64,119.43c-15.2,0-23.8-11-23.8-26.7,0-14.9,8.4-28.5,24.5-28.6,16.6.1,23.8,13.8,23.8,28.7C566.14,108.83,557.24,119.43,541.64,119.43Zm-.2-50.3c-10.7,0-13.4,14.1-13.4,23.6,0,8.9,4.3,21.7,14.2,21.7,10.8,0,13.7-12.4,13.7-21.6S552.14,69.13,541.44,69.13Z"/><path d="M596.94,119.43c-15.2,0-23.8-11-23.8-26.7,0-14.9,8.4-28.5,24.5-28.6,16.6.1,23.8,13.8,23.8,28.7C621.44,108.83,612.54,119.43,596.94,119.43Zm-.2-50.3c-10.7,0-13.4,14.1-13.4,23.6,0,8.9,4.3,21.7,14.2,21.7,10.8,0,13.7-12.4,13.7-21.6S607.44,69.13,596.74,69.13Z"/><path d="M674.84,117.73h-11.6l-17.4-25.2-5,5.6v19.6h-9.4V41h9.4v48.4h.6c1.8-2.4,4.8-5.7,19.2-23.8h11.2l-20.1,21.5Z"/></svg>